<svg width="855" height="84" viewBox="0 0 855 84" fill="none" xmlns="http://www.w3.org/2000/svg">
<path d="M393 42L384.63 37.1673V46.8327L393 42ZM77 42.837H385.467V41.163H77V42.837Z" fill="#F4F6FE"/>
<path d="M779 42L770.63 37.1673V46.8327L779 42ZM463 42.837H771.467V41.163H463V42.837Z" fill="#F4F6FE"/>
<g filter="url(#filter0_d_14_159)">
<circle cx="42" cy="42" r="35" fill="white"/>
</g>
<g filter="url(#filter1_d_14_159)">
<circle cx="428" cy="42" r="35" fill="white"/>
</g>
<g filter="url(#filter2_d_14_159)">
<circle cx="813" cy="42" r="35" fill="white"/>
</g>
<path d="M444.667 29.5L421.75 52.4167L411.333 42" stroke="#F30917" stroke-width="5" stroke-linecap="round" stroke-linejoin="round"/>
<g clip-path="url(#clip0_14_159)">
<path d="M821.824 33.1765L816.529 42.8824H827.118L821.824 33.1765ZM804.176 33.1765L798.882 42.8824H809.471L804.176 33.1765ZM815.495 30.5294C815.367 30.8971 815.158 31.2256 814.868 31.5152C814.579 31.8047 814.25 32.0138 813.882 32.1425V49.9412H822.265C822.393 49.9412 822.499 49.9825 822.582 50.0653C822.665 50.148 822.706 50.2537 822.706 50.3824V51.2647C822.706 51.3934 822.665 51.4991 822.582 51.5818C822.499 51.6645 822.393 51.7059 822.265 51.7059H803.735C803.607 51.7059 803.501 51.6645 803.418 51.5818C803.335 51.4991 803.294 51.3934 803.294 51.2647V50.3824C803.294 50.2537 803.335 50.148 803.418 50.0653C803.501 49.9825 803.607 49.9412 803.735 49.9412H812.118V32.1425C811.75 32.0138 811.421 31.8047 811.132 31.5152C810.842 31.2256 810.633 30.8971 810.505 30.5294H803.735C803.607 30.5294 803.501 30.4881 803.418 30.4053C803.335 30.3226 803.294 30.2169 803.294 30.0882V29.2059C803.294 29.0772 803.335 28.9715 803.418 28.8888C803.501 28.8061 803.607 28.7647 803.735 28.7647H810.505C810.698 28.2408 811.019 27.8157 811.47 27.4894C811.92 27.1631 812.43 27 813 27C813.57 27 814.08 27.1631 814.53 27.4894C814.981 27.8157 815.302 28.2408 815.495 28.7647H822.265C822.393 28.7647 822.499 28.8061 822.582 28.8888C822.665 28.9715 822.706 29.0772 822.706 29.2059V30.0882C822.706 30.2169 822.665 30.3226 822.582 30.4053C822.499 30.4881 822.393 30.5294 822.265 30.5294H815.495ZM813 30.75C813.303 30.75 813.563 30.642 813.779 30.426C813.995 30.21 814.103 29.9504 814.103 29.6471C814.103 29.3438 813.995 29.0841 813.779 28.8681C813.563 28.6521 813.303 28.5441 813 28.5441C812.697 28.5441 812.437 28.6521 812.221 28.8681C812.005 29.0841 811.897 29.3438 811.897 29.6471C811.897 29.9504 812.005 30.21 812.221 30.426C812.437 30.642 812.697 30.75 813 30.75ZM828 42.8824C828 43.5533 827.786 44.1553 827.359 44.6884C826.932 45.2215 826.392 45.6397 825.739 45.943C825.086 46.2463 824.422 46.4738 823.747 46.6255C823.071 46.7771 822.43 46.8529 821.824 46.8529C821.217 46.8529 820.576 46.7771 819.9 46.6255C819.225 46.4738 818.561 46.2463 817.908 45.943C817.256 45.6397 816.716 45.2215 816.288 44.6884C815.861 44.1553 815.647 43.5533 815.647 42.8824C815.647 42.7812 815.808 42.409 816.13 41.7656C816.451 41.1222 816.874 40.3203 817.398 39.3598C817.922 38.3994 818.414 37.5009 818.873 36.6645C819.333 35.8281 819.801 34.9825 820.279 34.1278C820.757 33.273 821.015 32.8134 821.051 32.7491C821.217 32.4458 821.474 32.2941 821.824 32.2941C822.173 32.2941 822.43 32.4458 822.596 32.7491C822.632 32.8134 822.89 33.273 823.368 34.1278C823.846 34.9825 824.314 35.8281 824.774 36.6645C825.233 37.5009 825.725 38.3994 826.249 39.3598C826.773 40.3203 827.196 41.1222 827.517 41.7656C827.839 42.409 828 42.7812 828 42.8824ZM810.353 42.8824C810.353 43.5533 810.139 44.1553 809.712 44.6884C809.284 45.2215 808.744 45.6397 808.092 45.943C807.439 46.2463 806.775 46.4738 806.1 46.6255C805.424 46.7771 804.783 46.8529 804.176 46.8529C803.57 46.8529 802.929 46.7771 802.253 46.6255C801.578 46.4738 800.914 46.2463 800.261 45.943C799.608 45.6397 799.068 45.2215 798.641 44.6884C798.214 44.1553 798 43.5533 798 42.8824C798 42.7812 798.161 42.409 798.483 41.7656C798.804 41.1222 799.227 40.3203 799.751 39.3598C800.275 38.3994 800.767 37.5009 801.226 36.6645C801.686 35.8281 802.154 34.9825 802.632 34.1278C803.11 33.273 803.368 32.8134 803.404 32.7491C803.57 32.4458 803.827 32.2941 804.176 32.2941C804.526 32.2941 804.783 32.4458 804.949 32.7491C804.985 32.8134 805.243 33.273 805.721 34.1278C806.199 34.9825 806.667 35.8281 807.127 36.6645C807.586 37.5009 808.078 38.3994 808.602 39.3598C809.126 40.3203 809.549 41.1222 809.87 41.7656C810.192 42.409 810.353 42.7812 810.353 42.8824Z" fill="#F30917"/>
</g>
<path d="M56.9062 48.7812C56.9062 48.2344 56.4688 47.7422 55.8672 47.7422H25.1328C24.5859 47.7422 24.0938 48.1797 24.0938 48.7812V49.8203C24.0938 50.3672 24.5313 50.8594 25.1328 50.8594H55.8672C56.4141 50.8594 56.9062 50.4219 56.9062 49.8203V48.7812Z" fill="#B2C1C0"/>
<path d="M29.7266 54.9062C31.72 54.9062 33.3359 53.3148 33.3359 51.3516C33.3359 49.3884 31.72 47.7969 29.7266 47.7969C27.7332 47.7969 26.1172 49.3884 26.1172 51.3516C26.1172 53.3148 27.7332 54.9062 29.7266 54.9062Z" fill="#3E4347"/>
<path d="M29.7266 53.375C30.8743 53.375 31.8047 52.4691 31.8047 51.3516C31.8047 50.234 30.8743 49.3281 29.7266 49.3281C28.5788 49.3281 27.6484 50.234 27.6484 51.3516C27.6484 52.4691 28.5788 53.375 29.7266 53.375Z" fill="#B2C1C0"/>
<path d="M50.7812 54.9062C52.7747 54.9062 54.3906 53.3148 54.3906 51.3516C54.3906 49.3884 52.7747 47.7969 50.7812 47.7969C48.7878 47.7969 47.1719 49.3884 47.1719 51.3516C47.1719 53.3148 48.7878 54.9062 50.7812 54.9062Z" fill="#3E4347"/>
<path d="M50.7812 53.375C51.929 53.375 52.8594 52.4691 52.8594 51.3516C52.8594 50.234 51.929 49.3281 50.7812 49.3281C49.6335 49.3281 48.7031 50.234 48.7031 51.3516C48.7031 52.4691 49.6335 53.375 50.7812 53.375Z" fill="#B2C1C0"/>
<path d="M52.8047 31.3906H38.4219C36.7266 31.3906 35.3594 32.7578 35.3594 34.4531V47.7422H55.8672V34.4531C55.8672 32.7578 54.5 31.3906 52.8047 31.3906Z" fill="#62727A"/>
<path d="M31.2578 35.4922C28.7969 35.4922 28.1953 35.4922 28.1953 39.5938C28.1953 42.6562 25.1328 42.6563 25.1328 45.7188V47.7422H35.4141V35.4922H31.2578Z" fill="#F30917"/>
<path d="M26.1719 44.6797H27.2109V46.7031H26.1719V44.6797Z" fill="#FFCE31"/>
<path d="M29.9999 42.6562C29.3983 42.6562 29.0702 43.0938 29.2889 43.6406L30.1639 45.8281C30.3827 46.375 31.0389 46.7578 31.6405 46.7578H33.2811C33.8827 46.7578 34.3749 46.3203 34.3749 45.7188V43.6953C34.3749 43.1484 33.8827 42.6562 33.2811 42.6562H29.9999Z" fill="#F30917"/>
<path d="M34.375 36.4766H30.2734C30.2734 36.4766 29.2344 36.5859 29.2344 38.0078V40.4687C29.2344 40.4687 29.2344 41.6172 30.2734 41.6172H34.375V36.4766Z" fill="#3E4347"/>
<path d="M29.7266 49.7656C29.9984 49.7656 30.2188 49.5453 30.2188 49.2734C30.2188 49.0016 29.9984 48.7812 29.7266 48.7812C29.4547 48.7812 29.2344 49.0016 29.2344 49.2734C29.2344 49.5453 29.4547 49.7656 29.7266 49.7656Z" fill="#3E4347"/>
<path d="M27.9766 50.8047C28.2484 50.8047 28.4688 50.5843 28.4688 50.3125C28.4688 50.0407 28.2484 49.8203 27.9766 49.8203C27.7047 49.8203 27.4844 50.0407 27.4844 50.3125C27.4844 50.5843 27.7047 50.8047 27.9766 50.8047Z" fill="#3E4347"/>
<path d="M27.7031 51.8985C27.9219 51.7344 28.25 51.8438 28.4141 52.0625C28.5781 52.2813 28.4688 52.6094 28.25 52.7735C28.0313 52.9375 27.7031 52.8281 27.5391 52.6094C27.375 52.336 27.4297 52.0625 27.7031 51.8985Z" fill="#3E4347"/>
<path d="M29.7266 53.8672C29.9984 53.8672 30.2188 53.6468 30.2188 53.375C30.2188 53.1032 29.9984 52.8828 29.7266 52.8828C29.4547 52.8828 29.2344 53.1032 29.2344 53.375C29.2344 53.6468 29.4547 53.8672 29.7266 53.8672Z" fill="#3E4347"/>
<path d="M31.5313 52.8281C31.8031 52.8281 32.0234 52.6078 32.0234 52.3359C32.0234 52.0641 31.8031 51.8438 31.5313 51.8438C31.2594 51.8438 31.0391 52.0641 31.0391 52.3359C31.0391 52.6078 31.2594 52.8281 31.5313 52.8281Z" fill="#3E4347"/>
<path d="M31.5313 50.8047C31.8031 50.8047 32.0234 50.5843 32.0234 50.3125C32.0234 50.0407 31.8031 49.8203 31.5313 49.8203C31.2594 49.8203 31.0391 50.0407 31.0391 50.3125C31.0391 50.5843 31.2594 50.8047 31.5313 50.8047Z" fill="#3E4347"/>
<path d="M29.7266 52.3906C30.3004 52.3906 30.7656 51.9254 30.7656 51.3516C30.7656 50.7777 30.3004 50.3125 29.7266 50.3125C29.1527 50.3125 28.6875 50.7777 28.6875 51.3516C28.6875 51.9254 29.1527 52.3906 29.7266 52.3906Z" fill="#62727A"/>
<path d="M50.7812 49.7656C51.0531 49.7656 51.2734 49.5453 51.2734 49.2734C51.2734 49.0016 51.0531 48.7812 50.7812 48.7812C50.5094 48.7812 50.2891 49.0016 50.2891 49.2734C50.2891 49.5453 50.5094 49.7656 50.7812 49.7656Z" fill="#3E4347"/>
<path d="M48.9766 50.8047C49.2484 50.8047 49.4688 50.5843 49.4688 50.3125C49.4688 50.0407 49.2484 49.8203 48.9766 49.8203C48.7047 49.8203 48.4844 50.0407 48.4844 50.3125C48.4844 50.5843 48.7047 50.8047 48.9766 50.8047Z" fill="#3E4347"/>
<path d="M48.703 51.8985C48.9218 51.7344 49.2499 51.8438 49.414 52.0625C49.578 52.2813 49.4686 52.6094 49.2499 52.7735C49.0311 52.9375 48.703 52.8281 48.539 52.6094C48.3749 52.336 48.4843 52.0625 48.703 51.8985Z" fill="#3E4347"/>
<path d="M50.7812 53.8672C51.0531 53.8672 51.2734 53.6468 51.2734 53.375C51.2734 53.1032 51.0531 52.8828 50.7812 52.8828C50.5094 52.8828 50.2891 53.1032 50.2891 53.375C50.2891 53.6468 50.5094 53.8672 50.7812 53.8672Z" fill="#3E4347"/>
<path d="M52.5313 52.8281C52.8031 52.8281 53.0234 52.6078 53.0234 52.3359C53.0234 52.0641 52.8031 51.8438 52.5313 51.8438C52.2594 51.8438 52.0391 52.0641 52.0391 52.3359C52.0391 52.6078 52.2594 52.8281 52.5313 52.8281Z" fill="#3E4347"/>
<path d="M52.5313 50.8047C52.8031 50.8047 53.0234 50.5843 53.0234 50.3125C53.0234 50.0407 52.8031 49.8203 52.5313 49.8203C52.2594 49.8203 52.0391 50.0407 52.0391 50.3125C52.0391 50.5843 52.2594 50.8047 52.5313 50.8047Z" fill="#3E4347"/>
<path d="M50.7812 52.3906C51.3551 52.3906 51.8203 51.9254 51.8203 51.3516C51.8203 50.7777 51.3551 50.3125 50.7812 50.3125C50.2074 50.3125 49.7422 50.7777 49.7422 51.3516C49.7422 51.9254 50.2074 52.3906 50.7812 52.3906Z" fill="#62727A"/>
<path d="M38.5312 38.8828C38.2578 38.6641 37.875 38.5547 37.3281 38.5547C37 38.5547 36.6719 38.5547 36.4531 38.6094V41.5625C36.6172 41.5625 36.8906 41.6172 37.2187 41.6172C37.8203 41.6172 38.2578 41.4531 38.5859 41.1797C38.8594 40.9063 39.0781 40.5234 39.0781 39.9766C38.9687 39.4844 38.8047 39.1563 38.5312 38.8828ZM37.2734 41.1797H36.9453V39.0469C37 39.0469 37.1641 38.9922 37.3281 38.9922C38.0391 38.9922 38.4219 39.375 38.4219 40.0313C38.4219 40.7969 37.9844 41.1797 37.2734 41.1797ZM41.1562 40.25H40.0078V41.125H41.2656V41.5625H39.4609V38.5547H41.2109V39.0469H40.0078V39.8125H41.1562V40.25ZM42.3047 41.125V38.5547H41.7578V41.5625H43.5625V41.125H42.3047ZM43.9453 38.5547H44.4922V41.5625H43.9453V38.5547ZM46.8984 38.5547L46.4609 39.9219C46.3516 40.3047 46.2422 40.6328 46.1328 41.0156C46.0781 40.6328 45.9687 40.3047 45.8594 39.9219L45.4219 38.5547H44.875L45.8594 41.5625H46.5156L47.5547 38.5547H46.8984ZM48.375 41.125V40.25H49.5234V39.8125H48.375V39.0469H49.5781V38.5547H47.8281V41.5625H49.6328V41.125H48.375ZM52.0391 40.7422C51.9844 40.4688 51.8203 40.25 51.6016 40.1406C51.875 40.0313 52.1484 39.7578 52.1484 39.375C52.1484 39.1016 52.0391 38.9375 51.875 38.7734C51.6562 38.6094 51.3828 38.5547 50.9453 38.5547C50.6172 38.5547 50.3437 38.5547 50.125 38.6094V41.5625H50.6719V40.3047H50.9453C51.2734 40.3047 51.3828 40.4141 51.4922 40.8516C51.6016 41.2344 51.6562 41.4531 51.7109 41.5625H52.2578C52.2031 41.4531 52.1484 41.125 52.0391 40.7422ZM51 39.9219H50.6719V38.9922H51C51.3828 38.9922 51.6016 39.1563 51.6016 39.4844C51.6016 39.7578 51.3828 39.9219 51 39.9219ZM54.2266 38.5547L53.8438 39.3203C53.7344 39.5391 53.6797 39.7031 53.5703 39.9219C53.5156 39.7031 53.4062 39.5391 53.2969 39.3203L52.9141 38.5547H52.3125L53.2422 40.3047V41.5625H53.7891V40.3047L54.7734 38.5547H54.2266Z" fill="white"/>
<path d="M37.9297 37.5156V34.4531C37.9297 34.1797 38.1484 33.9609 38.4219 33.9609H52.75C53.0234 33.9609 53.2422 34.1797 53.2422 34.4531V37.5156H54.2812V34.4531C54.2812 33.6328 53.5703 32.9219 52.75 32.9219H38.4219C37.5469 32.9219 36.8906 33.6328 36.8906 34.4531V37.5156H37.9297ZM53.2969 42.6562V44.6797C53.2969 44.9531 53.0781 45.1719 52.8047 45.1719H38.4219C38.1484 45.1719 37.9297 44.9531 37.9297 44.6797V42.6562H36.8906V44.6797C36.8906 45.5 37.6016 46.2109 38.4219 46.2109H52.75C53.625 46.2109 54.2812 45.5 54.2812 44.6797V42.6562H53.2969Z" fill="#3E4347"/>
<path d="M38.9688 35.4375C39.2406 35.4375 39.4609 35.2171 39.4609 34.9453C39.4609 34.6735 39.2406 34.4531 38.9688 34.4531C38.6969 34.4531 38.4766 34.6735 38.4766 34.9453C38.4766 35.2171 38.6969 35.4375 38.9688 35.4375Z" fill="#B2C1C0"/>
<path d="M52.3125 35.4375C52.5843 35.4375 52.8047 35.2171 52.8047 34.9453C52.8047 34.6735 52.5843 34.4531 52.3125 34.4531C52.0407 34.4531 51.8203 34.6735 51.8203 34.9453C51.8203 35.2171 52.0407 35.4375 52.3125 35.4375Z" fill="#B2C1C0"/>
<path d="M38.9688 44.6797C39.2406 44.6797 39.4609 44.4593 39.4609 44.1875C39.4609 43.9157 39.2406 43.6953 38.9688 43.6953C38.6969 43.6953 38.4766 43.9157 38.4766 44.1875C38.4766 44.4593 38.6969 44.6797 38.9688 44.6797Z" fill="#B2C1C0"/>
<path d="M52.3125 44.6797C52.5843 44.6797 52.8047 44.4593 52.8047 44.1875C52.8047 43.9157 52.5843 43.6953 52.3125 43.6953C52.0407 43.6953 51.8203 43.9157 51.8203 44.1875C51.8203 44.4593 52.0407 44.6797 52.3125 44.6797Z" fill="#B2C1C0"/>
<path d="M43.5625 51.3516C43.5625 51.8984 43.125 52.3906 42.5234 52.3906H38.4219C37.875 52.3906 37.3828 51.9531 37.3828 51.3516V50.3125C37.3828 49.7656 37.8203 49.2734 38.4219 49.2734H42.5234C43.0703 49.2734 43.5625 49.7109 43.5625 50.3125V51.3516Z" fill="#62727A"/>
<path d="M38.5859 49.8203C38.2578 49.8203 37.9297 50.0391 37.9297 50.3125C37.9297 50.5859 38.2031 50.8047 38.5859 50.8047H42.4141C42.7422 50.8047 43.0703 50.5859 43.0703 50.3125C43.0703 50.0391 42.7969 49.8203 42.4141 49.8203H38.5859Z" fill="#B2C1C0"/>
<defs>
<filter id="filter0_d_14_159" x="0.638439" y="0.638439" width="82.7231" height="82.7231" filterUnits="userSpaceOnUse" color-interpolation-filters="sRGB">
<feFlood flood-opacity="0" result="BackgroundImageFix"/>
<feColorMatrix in="SourceAlpha" type="matrix" values="0 0 0 0 0 0 0 0 0 0 0 0 0 0 0 0 0 0 127 0" result="hardAlpha"/>
<feMorphology radius="6.36156" operator="dilate" in="SourceAlpha" result="effect1_dropShadow_14_159"/>
<feOffset/>
<feComposite in2="hardAlpha" operator="out"/>
<feColorMatrix type="matrix" values="0 0 0 0 0.941667 0 0 0 0 0.164792 0 0 0 0 0.164792 0 0 0 0.05 0"/>
<feBlend mode="normal" in2="BackgroundImageFix" result="effect1_dropShadow_14_159"/>
<feBlend mode="normal" in="SourceGraphic" in2="effect1_dropShadow_14_159" result="shape"/>
</filter>
<filter id="filter1_d_14_159" x="386.638" y="0.638439" width="82.7231" height="82.7231" filterUnits="userSpaceOnUse" color-interpolation-filters="sRGB">
<feFlood flood-opacity="0" result="BackgroundImageFix"/>
<feColorMatrix in="SourceAlpha" type="matrix" values="0 0 0 0 0 0 0 0 0 0 0 0 0 0 0 0 0 0 127 0" result="hardAlpha"/>
<feMorphology radius="6.36156" operator="dilate" in="SourceAlpha" result="effect1_dropShadow_14_159"/>
<feOffset/>
<feComposite in2="hardAlpha" operator="out"/>
<feColorMatrix type="matrix" values="0 0 0 0 0.941667 0 0 0 0 0.164792 0 0 0 0 0.164792 0 0 0 0.05 0"/>
<feBlend mode="normal" in2="BackgroundImageFix" result="effect1_dropShadow_14_159"/>
<feBlend mode="normal" in="SourceGraphic" in2="effect1_dropShadow_14_159" result="shape"/>
</filter>
<filter id="filter2_d_14_159" x="771.638" y="0.638439" width="82.7231" height="82.7231" filterUnits="userSpaceOnUse" color-interpolation-filters="sRGB">
<feFlood flood-opacity="0" result="BackgroundImageFix"/>
<feColorMatrix in="SourceAlpha" type="matrix" values="0 0 0 0 0 0 0 0 0 0 0 0 0 0 0 0 0 0 127 0" result="hardAlpha"/>
<feMorphology radius="6.36156" operator="dilate" in="SourceAlpha" result="effect1_dropShadow_14_159"/>
<feOffset/>
<feComposite in2="hardAlpha" operator="out"/>
<feColorMatrix type="matrix" values="0 0 0 0 0.941667 0 0 0 0 0.164792 0 0 0 0 0.164792 0 0 0 0.05 0"/>
<feBlend mode="normal" in2="BackgroundImageFix" result="effect1_dropShadow_14_159"/>
<feBlend mode="normal" in="SourceGraphic" in2="effect1_dropShadow_14_159" result="shape"/>
</filter>
<clipPath id="clip0_14_159">
<rect width="30" height="24.7059" fill="white" transform="translate(798 27)"/>
</clipPath>
</defs>
</svg>
