<svg width="585" height="540" viewBox="0 0 585 540" fill="none" xmlns="http://www.w3.org/2000/svg">
<circle cx="1.19882" cy="372.199" r="1.19882" fill="#F30917"/>
<circle cx="13.0157" cy="372.199" r="1.19882" fill="#F30917"/>
<circle cx="24.8326" cy="372.199" r="1.19882" fill="#F30917"/>
<circle cx="36.6495" cy="372.199" r="1.19882" fill="#F30917"/>
<circle cx="48.4664" cy="372.199" r="1.19882" fill="#F30917"/>
<circle cx="60.2833" cy="372.199" r="1.19882" fill="#F30917"/>
<circle cx="72.1004" cy="372.199" r="1.19882" fill="#F30917"/>
<circle cx="83.9173" cy="372.199" r="1.19882" fill="#F30917"/>
<circle cx="95.7342" cy="372.199" r="1.19882" fill="#F30917"/>
<circle cx="107.551" cy="372.199" r="1.19882" fill="#F30917"/>
<circle cx="1.19882" cy="384.016" r="1.19882" fill="#F30917"/>
<circle cx="13.0157" cy="384.016" r="1.19882" fill="#F30917"/>
<circle cx="24.8326" cy="384.016" r="1.19882" fill="#F30917"/>
<circle cx="36.6495" cy="384.016" r="1.19882" fill="#F30917"/>
<circle cx="48.4664" cy="384.016" r="1.19882" fill="#F30917"/>
<circle cx="60.2833" cy="384.016" r="1.19882" fill="#F30917"/>
<circle cx="72.1004" cy="384.016" r="1.19882" fill="#F30917"/>
<circle cx="83.9173" cy="384.016" r="1.19882" fill="#F30917"/>
<circle cx="95.7342" cy="384.016" r="1.19882" fill="#F30917"/>
<circle cx="107.551" cy="384.016" r="1.19882" fill="#F30917"/>
<circle cx="1.19882" cy="395.833" r="1.19882" fill="#F30917"/>
<circle cx="13.0157" cy="395.833" r="1.19882" fill="#F30917"/>
<circle cx="24.8326" cy="395.833" r="1.19882" fill="#F30917"/>
<circle cx="36.6495" cy="395.833" r="1.19882" fill="#F30917"/>
<circle cx="48.4664" cy="395.833" r="1.19882" fill="#F30917"/>
<circle cx="60.2833" cy="395.833" r="1.19882" fill="#F30917"/>
<circle cx="72.1004" cy="395.833" r="1.19882" fill="#F30917"/>
<circle cx="83.9173" cy="395.833" r="1.19882" fill="#F30917"/>
<circle cx="95.7342" cy="395.833" r="1.19882" fill="#F30917"/>
<circle cx="107.551" cy="395.833" r="1.19882" fill="#F30917"/>
<circle cx="1.19882" cy="407.65" r="1.19882" fill="#F30917"/>
<circle cx="13.0157" cy="407.65" r="1.19882" fill="#F30917"/>
<circle cx="24.8326" cy="407.65" r="1.19882" fill="#F30917"/>
<circle cx="36.6495" cy="407.65" r="1.19882" fill="#F30917"/>
<circle cx="48.4664" cy="407.65" r="1.19882" fill="#F30917"/>
<circle cx="60.2833" cy="407.65" r="1.19882" fill="#F30917"/>
<circle cx="72.1004" cy="407.65" r="1.19882" fill="#F30917"/>
<circle cx="83.9173" cy="407.65" r="1.19882" fill="#F30917"/>
<circle cx="95.7342" cy="407.65" r="1.19882" fill="#F30917"/>
<circle cx="107.551" cy="407.65" r="1.19882" fill="#F30917"/>
<circle cx="1.19882" cy="419.467" r="1.19882" fill="#F30917"/>
<circle cx="13.0157" cy="419.467" r="1.19882" fill="#F30917"/>
<circle cx="24.8326" cy="419.467" r="1.19882" fill="#F30917"/>
<circle cx="36.6495" cy="419.467" r="1.19882" fill="#F30917"/>
<circle cx="48.4664" cy="419.467" r="1.19882" fill="#F30917"/>
<circle cx="60.2833" cy="419.467" r="1.19882" fill="#F30917"/>
<circle cx="72.1004" cy="419.467" r="1.19882" fill="#F30917"/>
<circle cx="83.9173" cy="419.467" r="1.19882" fill="#F30917"/>
<circle cx="95.7342" cy="419.467" r="1.19882" fill="#F30917"/>
<circle cx="107.551" cy="419.467" r="1.19882" fill="#F30917"/>
<circle cx="1.19882" cy="431.283" r="1.19882" fill="#F30917"/>
<circle cx="13.0157" cy="431.283" r="1.19882" fill="#F30917"/>
<circle cx="24.8326" cy="431.283" r="1.19882" fill="#F30917"/>
<circle cx="36.6495" cy="431.283" r="1.19882" fill="#F30917"/>
<circle cx="48.4664" cy="431.283" r="1.19882" fill="#F30917"/>
<circle cx="60.2833" cy="431.283" r="1.19882" fill="#F30917"/>
<circle cx="72.1004" cy="431.283" r="1.19882" fill="#F30917"/>
<circle cx="83.9173" cy="431.283" r="1.19882" fill="#F30917"/>
<circle cx="95.7342" cy="431.283" r="1.19882" fill="#F30917"/>
<circle cx="107.551" cy="431.283" r="1.19882" fill="#F30917"/>
<rect x="126" width="390" height="540" rx="15" fill="#F4F6FE"/>
<circle r="1.78537" transform="matrix(1 -8.74228e-08 -8.74228e-08 -1 423.927 251.323)" fill="#F30917"/>
<circle r="1.78537" transform="matrix(1 -8.74228e-08 -8.74228e-08 -1 441.526 251.323)" fill="#F30917"/>
<circle r="1.78537" transform="matrix(1 -8.74228e-08 -8.74228e-08 -1 459.124 251.323)" fill="#F30917"/>
<circle r="1.78537" transform="matrix(1 -8.74228e-08 -8.74228e-08 -1 476.723 251.323)" fill="#F30917"/>
<circle r="1.78537" transform="matrix(1 -8.74228e-08 -8.74228e-08 -1 494.322 251.323)" fill="#F30917"/>
<circle r="1.78537" transform="matrix(1 -8.74228e-08 -8.74228e-08 -1 511.92 251.323)" fill="#F30917"/>
<circle r="1.78537" transform="matrix(1 -8.74228e-08 -8.74228e-08 -1 529.519 251.323)" fill="#F30917"/>
<circle r="1.78537" transform="matrix(1 -8.74228e-08 -8.74228e-08 -1 547.118 251.323)" fill="#F30917"/>
<circle r="1.78537" transform="matrix(1 -8.74228e-08 -8.74228e-08 -1 564.717 251.323)" fill="#F30917"/>
<circle r="1.78537" transform="matrix(1 -8.74228e-08 -8.74228e-08 -1 582.315 251.323)" fill="#F30917"/>
<circle r="1.78537" transform="matrix(1 -8.74228e-08 -8.74228e-08 -1 423.927 233.725)" fill="#F30917"/>
<circle r="1.78537" transform="matrix(1 -8.74228e-08 -8.74228e-08 -1 441.526 233.725)" fill="#F30917"/>
<circle r="1.78537" transform="matrix(1 -8.74228e-08 -8.74228e-08 -1 459.124 233.725)" fill="#F30917"/>
<circle r="1.78537" transform="matrix(1 -8.74228e-08 -8.74228e-08 -1 476.723 233.725)" fill="#F30917"/>
<circle r="1.78537" transform="matrix(1 -8.74228e-08 -8.74228e-08 -1 494.322 233.725)" fill="#F30917"/>
<circle r="1.78537" transform="matrix(1 -8.74228e-08 -8.74228e-08 -1 511.92 233.725)" fill="#F30917"/>
<circle r="1.78537" transform="matrix(1 -8.74228e-08 -8.74228e-08 -1 529.519 233.725)" fill="#F30917"/>
<circle r="1.78537" transform="matrix(1 -8.74228e-08 -8.74228e-08 -1 547.118 233.725)" fill="#F30917"/>
<circle r="1.78537" transform="matrix(1 -8.74228e-08 -8.74228e-08 -1 564.717 233.725)" fill="#F30917"/>
<circle r="1.78537" transform="matrix(1 -8.74228e-08 -8.74228e-08 -1 582.315 233.725)" fill="#F30917"/>
<circle r="1.78537" transform="matrix(1 -8.74228e-08 -8.74228e-08 -1 423.927 216.126)" fill="#F30917"/>
<circle r="1.78537" transform="matrix(1 -8.74228e-08 -8.74228e-08 -1 441.526 216.126)" fill="#F30917"/>
<circle r="1.78537" transform="matrix(1 -8.74228e-08 -8.74228e-08 -1 459.124 216.126)" fill="#F30917"/>
<circle r="1.78537" transform="matrix(1 -8.74228e-08 -8.74228e-08 -1 476.723 216.126)" fill="#F30917"/>
<circle r="1.78537" transform="matrix(1 -8.74228e-08 -8.74228e-08 -1 494.322 216.126)" fill="#F30917"/>
<circle r="1.78537" transform="matrix(1 -8.74228e-08 -8.74228e-08 -1 511.92 216.126)" fill="#F30917"/>
<circle r="1.78537" transform="matrix(1 -8.74228e-08 -8.74228e-08 -1 529.519 216.126)" fill="#F30917"/>
<circle r="1.78537" transform="matrix(1 -8.74228e-08 -8.74228e-08 -1 547.118 216.126)" fill="#F30917"/>
<circle r="1.78537" transform="matrix(1 -8.74228e-08 -8.74228e-08 -1 564.717 216.126)" fill="#F30917"/>
<circle r="1.78537" transform="matrix(1 -8.74228e-08 -8.74228e-08 -1 582.315 216.126)" fill="#F30917"/>
<circle r="1.78537" transform="matrix(1 -8.74228e-08 -8.74228e-08 -1 423.927 198.527)" fill="#F30917"/>
<circle r="1.78537" transform="matrix(1 -8.74228e-08 -8.74228e-08 -1 441.526 198.527)" fill="#F30917"/>
<circle r="1.78537" transform="matrix(1 -8.74228e-08 -8.74228e-08 -1 459.124 198.527)" fill="#F30917"/>
<circle r="1.78537" transform="matrix(1 -8.74228e-08 -8.74228e-08 -1 476.723 198.527)" fill="#F30917"/>
<circle r="1.78537" transform="matrix(1 -8.74228e-08 -8.74228e-08 -1 494.322 198.527)" fill="#F30917"/>
<circle r="1.78537" transform="matrix(1 -8.74228e-08 -8.74228e-08 -1 511.92 198.527)" fill="#F30917"/>
<circle r="1.78537" transform="matrix(1 -8.74228e-08 -8.74228e-08 -1 529.519 198.527)" fill="#F30917"/>
<circle r="1.78537" transform="matrix(1 -8.74228e-08 -8.74228e-08 -1 547.118 198.527)" fill="#F30917"/>
<circle r="1.78537" transform="matrix(1 -8.74228e-08 -8.74228e-08 -1 564.717 198.527)" fill="#F30917"/>
<circle r="1.78537" transform="matrix(1 -8.74228e-08 -8.74228e-08 -1 582.315 198.527)" fill="#F30917"/>
<circle r="1.78537" transform="matrix(1 -8.74228e-08 -8.74228e-08 -1 423.927 180.928)" fill="#F30917"/>
<circle r="1.78537" transform="matrix(1 -8.74228e-08 -8.74228e-08 -1 441.526 180.928)" fill="#F30917"/>
<circle r="1.78537" transform="matrix(1 -8.74228e-08 -8.74228e-08 -1 459.124 180.928)" fill="#F30917"/>
<circle r="1.78537" transform="matrix(1 -8.74228e-08 -8.74228e-08 -1 476.723 180.929)" fill="#F30917"/>
<circle r="1.78537" transform="matrix(1 -8.74228e-08 -8.74228e-08 -1 494.322 180.929)" fill="#F30917"/>
<circle r="1.78537" transform="matrix(1 -8.74228e-08 -8.74228e-08 -1 511.92 180.928)" fill="#F30917"/>
<circle r="1.78537" transform="matrix(1 -8.74228e-08 -8.74228e-08 -1 529.519 180.929)" fill="#F30917"/>
<circle r="1.78537" transform="matrix(1 -8.74228e-08 -8.74228e-08 -1 547.118 180.929)" fill="#F30917"/>
<circle r="1.78537" transform="matrix(1 -8.74228e-08 -8.74228e-08 -1 564.716 180.929)" fill="#F30917"/>
<circle r="1.78537" transform="matrix(1 -8.74228e-08 -8.74228e-08 -1 582.315 180.929)" fill="#F30917"/>
<circle r="1.78537" transform="matrix(1 -8.74228e-08 -8.74228e-08 -1 423.927 163.33)" fill="#F30917"/>
<circle r="1.78537" transform="matrix(1 -8.74228e-08 -8.74228e-08 -1 441.526 163.33)" fill="#F30917"/>
<circle r="1.78537" transform="matrix(1 -8.74228e-08 -8.74228e-08 -1 459.124 163.33)" fill="#F30917"/>
<circle r="1.78537" transform="matrix(1 -8.74228e-08 -8.74228e-08 -1 476.723 163.33)" fill="#F30917"/>
<circle r="1.78537" transform="matrix(1 -8.74228e-08 -8.74228e-08 -1 494.322 163.33)" fill="#F30917"/>
<circle r="1.78537" transform="matrix(1 -8.74228e-08 -8.74228e-08 -1 511.92 163.33)" fill="#F30917"/>
<circle r="1.78537" transform="matrix(1 -8.74228e-08 -8.74228e-08 -1 529.519 163.33)" fill="#F30917"/>
<circle r="1.78537" transform="matrix(1 -8.74228e-08 -8.74228e-08 -1 547.118 163.33)" fill="#F30917"/>
<circle r="1.78537" transform="matrix(1 -8.74228e-08 -8.74228e-08 -1 564.716 163.33)" fill="#F30917"/>
<circle r="1.78537" transform="matrix(1 -8.74228e-08 -8.74228e-08 -1 582.315 163.33)" fill="#F30917"/>
<g filter="url(#filter0_d_90_3)">
<rect x="169" y="51" width="119" height="126" rx="10" fill="white"/>
</g>
<rect x="184" y="85" width="88" height="10" fill="#F30917"/>
<rect x="184" y="106" width="54" height="9" fill="#C4C4C4"/>
<rect x="184" y="126" width="39" height="10" fill="#C4C4C4"/>
<rect x="184" y="147" width="15" height="10" fill="#C4C4C4"/>
<g filter="url(#filter1_d_90_3)">
<rect x="311" y="51" width="240" height="126" rx="10" fill="white"/>
</g>
<rect x="476" y="85" width="40" height="10" fill="#C4C4C4"/>
<rect x="460" y="85" width="8" height="10" fill="#F30917"/>
<rect x="476" y="106" width="40" height="9" fill="#C4C4C4"/>
<rect x="460" y="106" width="8" height="9" fill="#CF6DBB" fill-opacity="0.5"/>
<rect x="476" y="126" width="40" height="10" fill="#C4C4C4"/>
<rect x="460" y="126" width="8" height="10" fill="#CF6DBB" fill-opacity="0.2"/>
<path d="M385.029 67.8983C391.461 67.8983 397.813 69.3349 403.619 72.103C409.425 74.8712 414.54 78.9012 418.59 83.8986C422.64 88.8961 425.522 94.7349 427.027 100.989C428.532 107.243 428.621 113.754 427.288 120.046L414.611 117.361C415.544 112.956 415.481 108.398 414.428 104.021C413.374 99.643 411.356 95.5558 408.522 92.0576C405.687 88.5594 402.106 85.7384 398.042 83.8007C393.978 81.863 389.532 80.8574 385.029 80.8574V67.8983Z" fill="#15158D"/>
<g clip-path="url(#clip0_90_3)">
<path d="M386.828 118.508C386.807 118.508 386.785 118.507 386.763 118.505C386.354 118.479 386.007 118.211 385.878 117.821L383.802 111.544L382.043 115.695C381.897 116.04 381.574 116.273 381.2 116.303C380.827 116.332 380.472 116.152 380.274 115.834L378.371 112.789C378.084 112.331 378.224 111.728 378.682 111.442C379.139 111.156 379.743 111.295 380.029 111.753L380.959 113.241L382.991 108.445C383.152 108.063 383.538 107.818 383.952 107.835C384.366 107.851 384.731 108.127 384.861 108.521L386.993 114.965L388.477 111.89C388.67 111.507 389.062 111.273 389.486 111.287L391.663 111.315C392.203 111.322 392.635 111.765 392.628 112.305C392.621 112.845 392.177 113.278 391.638 113.27L389.992 113.249L387.728 117.941C387.56 118.29 387.211 118.508 386.828 118.508ZM385.967 117.091C385.967 117.091 385.967 117.092 385.966 117.092L385.967 117.091ZM381.931 114.797L381.932 114.799C381.932 114.798 381.932 114.798 381.931 114.797ZM392.279 121.317C392.279 120.777 391.842 120.339 391.302 120.339H379.111C377.277 120.339 375.785 118.848 375.785 117.014V109.283C375.785 107.449 377.277 105.958 379.111 105.958H391.302C393.136 105.958 394.628 107.45 394.628 109.283V117.014C394.628 117.427 394.554 117.829 394.407 118.209C394.213 118.713 394.464 119.279 394.968 119.473C395.472 119.667 396.038 119.416 396.232 118.912C396.465 118.306 396.583 117.668 396.583 117.014V109.283C396.583 106.371 394.214 104.003 391.302 104.003H379.111C376.199 104.003 373.83 106.371 373.83 109.283V117.014C373.83 119.926 376.199 122.295 379.111 122.295H391.302C391.842 122.295 392.279 121.857 392.279 121.317Z" fill="#717579"/>
<path d="M394.139 121.959C394.679 121.959 395.117 121.521 395.117 120.981C395.117 120.441 394.679 120.003 394.139 120.003C393.599 120.003 393.162 120.441 393.162 120.981C393.162 121.521 393.599 121.959 394.139 121.959Z" fill="#717579"/>
</g>
<path d="M427.393 119.536C425.867 127.198 422.291 134.302 417.047 140.092C411.803 145.882 405.087 150.142 397.614 152.418C390.141 154.694 382.191 154.901 374.609 153.017C367.028 151.132 360.1 147.227 354.562 141.718L363.702 132.531C367.578 136.388 372.428 139.121 377.735 140.44C383.042 141.759 388.607 141.615 393.839 140.021C399.07 138.428 403.771 135.446 407.442 131.393C411.113 127.34 413.615 122.367 414.684 117.004L427.393 119.536Z" fill="#1AAF73"/>
<path d="M354.565 141.721C349.616 136.798 345.933 130.748 343.833 124.091C341.733 117.433 341.278 110.366 342.506 103.494L355.263 105.774C354.403 110.585 354.722 115.532 356.192 120.192C357.662 124.852 360.24 129.087 363.704 132.533L354.565 141.721Z" fill="#F30917"/>
<path d="M342.503 103.509C344.288 93.5057 349.542 84.4517 357.341 77.9388C365.14 71.4258 374.986 67.8707 385.147 67.8985L385.112 80.8575C377.999 80.8381 371.107 83.3266 365.647 87.8857C360.188 92.4448 356.51 98.7826 355.261 105.785L342.503 103.509Z" fill="#F87C22"/>
<g filter="url(#filter2_d_90_3)">
<rect x="79" y="213" width="408" height="280" rx="10" fill="white"/>
</g>
<rect width="3.01077" height="11.0216" rx="1.50538" transform="matrix(-1 0 0 1 255.477 427.409)" fill="#C4C4C4"/>
<rect width="3.01077" height="15.251" rx="1.50538" transform="matrix(-1 0 0 1 240.423 429.676)" fill="#C4C4C4"/>
<rect width="3.01077" height="16.4875" rx="1.50538" transform="matrix(-1 0 0 1 232.896 419.578)" fill="#C4C4C4"/>
<rect width="3.01077" height="27.8227" rx="1.50538" transform="matrix(-1 0 0 1 247.95 425.142)" fill="#C4C4C4"/>
<rect width="3.01077" height="23.2886" rx="1.50538" transform="matrix(-1 0 0 1 263.004 418.341)" fill="#C4C4C4"/>
<rect width="3.01077" height="11.0216" rx="1.50538" transform="matrix(-1 0 0 1 424.614 427.409)" fill="#C4C4C4"/>
<rect width="3.01077" height="15.251" rx="1.50538" transform="matrix(-1 0 0 1 409.56 429.676)" fill="#C4C4C4"/>
<rect width="3.01077" height="16.4875" rx="1.50538" transform="matrix(-1 0 0 1 402.033 419.578)" fill="#C4C4C4"/>
<rect width="3.01077" height="27.8227" rx="1.50538" transform="matrix(-1 0 0 1 417.087 425.142)" fill="#C4C4C4"/>
<rect width="3.01077" height="23.2886" rx="1.50538" transform="matrix(-1 0 0 1 432.141 418.341)" fill="#C4C4C4"/>
<rect width="3.06849" height="11.2329" rx="1.53424" transform="matrix(1 0 0 -1 325.167 439.52)" fill="#C4C4C4"/>
<rect width="3.06849" height="15.5434" rx="1.53424" transform="matrix(1 0 0 -1 340.51 437.209)" fill="#C4C4C4"/>
<rect width="3.06849" height="16.8036" rx="1.53424" transform="matrix(1 0 0 -1 348.181 447.501)" fill="#C4C4C4"/>
<rect width="3.06849" height="28.3561" rx="1.53424" transform="matrix(1 0 0 -1 332.838 441.83)" fill="#C4C4C4"/>
<rect width="3.06849" height="23.7351" rx="1.53424" transform="matrix(1 0 0 -1 317.496 448.761)" fill="#C4C4C4"/>
<rect x="126" y="303" width="49" height="9" fill="#C4C4C4"/>
<rect x="126" y="319" width="49" height="9" fill="#C4C4C4"/>
<rect x="126" y="334" width="49" height="10" fill="#C4C4C4"/>
<rect x="126" y="350" width="49" height="10" fill="#C4C4C4"/>
<rect x="126" y="366" width="49" height="10" fill="#C4C4C4"/>
<rect x="126" y="382" width="49" height="10" fill="#C4C4C4"/>
<path d="M129.094 267L126.14 256.92H128.142L130.032 263.85L131.922 256.934L133.924 256.92L135.814 263.85L137.704 256.92H139.706L136.752 267H134.876L132.923 260.196L130.97 267H129.094ZM140.304 267V265.096H142.208V267H140.304Z" fill="#C4C4C4"/>
<rect x="230" y="344" width="14" height="27" fill="#C4C4C4"/>
<rect x="253" y="326" width="16" height="45" fill="#C4C4C4"/>
<rect x="277" y="304" width="16" height="67" fill="#F30917"/>
<rect x="302" y="360" width="15" height="11" fill="#C4C4C4"/>
<rect x="326" y="320" width="16" height="51" fill="#F30917"/>
<rect x="350" y="311" width="16" height="60" fill="#F30917"/>
<rect x="375" y="334" width="16" height="37" fill="#C4C4C4"/>
<rect x="399" y="326" width="16" height="45" fill="#C4C4C4"/>
<rect x="423" y="320" width="16" height="51" fill="#C4C4C4"/>
<defs>
<filter id="filter0_d_90_3" x="163" y="49" width="131" height="138" filterUnits="userSpaceOnUse" color-interpolation-filters="sRGB">
<feFlood flood-opacity="0" result="BackgroundImageFix"/>
<feColorMatrix in="SourceAlpha" type="matrix" values="0 0 0 0 0 0 0 0 0 0 0 0 0 0 0 0 0 0 127 0" result="hardAlpha"/>
<feOffset dy="4"/>
<feGaussianBlur stdDeviation="3"/>
<feColorMatrix type="matrix" values="0 0 0 0 0.243137 0 0 0 0 0.286275 0 0 0 0 0.329412 0 0 0 0.12 0"/>
<feBlend mode="normal" in2="BackgroundImageFix" result="effect1_dropShadow_90_3"/>
<feBlend mode="normal" in="SourceGraphic" in2="effect1_dropShadow_90_3" result="shape"/>
</filter>
<filter id="filter1_d_90_3" x="305" y="49" width="252" height="138" filterUnits="userSpaceOnUse" color-interpolation-filters="sRGB">
<feFlood flood-opacity="0" result="BackgroundImageFix"/>
<feColorMatrix in="SourceAlpha" type="matrix" values="0 0 0 0 0 0 0 0 0 0 0 0 0 0 0 0 0 0 127 0" result="hardAlpha"/>
<feOffset dy="4"/>
<feGaussianBlur stdDeviation="3"/>
<feColorMatrix type="matrix" values="0 0 0 0 0.243137 0 0 0 0 0.286275 0 0 0 0 0.329412 0 0 0 0.12 0"/>
<feBlend mode="normal" in2="BackgroundImageFix" result="effect1_dropShadow_90_3"/>
<feBlend mode="normal" in="SourceGraphic" in2="effect1_dropShadow_90_3" result="shape"/>
</filter>
<filter id="filter2_d_90_3" x="73" y="211" width="420" height="292" filterUnits="userSpaceOnUse" color-interpolation-filters="sRGB">
<feFlood flood-opacity="0" result="BackgroundImageFix"/>
<feColorMatrix in="SourceAlpha" type="matrix" values="0 0 0 0 0 0 0 0 0 0 0 0 0 0 0 0 0 0 127 0" result="hardAlpha"/>
<feOffset dy="4"/>
<feGaussianBlur stdDeviation="3"/>
<feColorMatrix type="matrix" values="0 0 0 0 0.243137 0 0 0 0 0.286275 0 0 0 0 0.329412 0 0 0 0.12 0"/>
<feBlend mode="normal" in2="BackgroundImageFix" result="effect1_dropShadow_90_3"/>
<feBlend mode="normal" in="SourceGraphic" in2="effect1_dropShadow_90_3" result="shape"/>
</filter>
<clipPath id="clip0_90_3">
<rect width="22.7539" height="22.7539" fill="white" transform="translate(373.83 99.5405)"/>
</clipPath>
</defs>
</svg>
