<svg width="64" height="64" viewBox="0 0 64 64" fill="none" xmlns="http://www.w3.org/2000/svg">
<path fill-rule="evenodd" clip-rule="evenodd" d="M58.774 36.945C58.368 36.49 57.628 36.004 56.887 35.586C56.598 33.259 56.1 30.655 55.262 29.567C54.657 28.781 53.642 28.36 52.106 27.723C50.494 27.055 47.795 25.937 47.3 24.699C46.8357 23.5387 46.4217 22.3589 46.059 21.163C46.157 21.055 46.248 20.934 46.332 20.8C46.617 20.347 47.011 19.395 46.453 18.108C45.799 16.594 43.539 14.108 40.596 13.137C40.503 13.0175 40.4073 12.9002 40.309 12.785V3.876C40.31 2.84 39.571 2 38.665 2C38.4787 2.00225 38.2947 2.04063 38.123 2.113C37.8003 2.81801 37.7539 3.61843 37.993 4.356C38.339 4.313 38.665 4.441 38.665 4.812V11.291C38.0751 10.8734 37.4217 10.5536 36.73 10.344C35.124 9.868 26.552 8.438 21.04 8.438C18.924 8.438 16.882 8.607 15.649 9.537V3.877C15.65 2.84 14.913 2 14.006 2C13.82 2.00213 13.6363 2.04051 13.465 2.113C13.278 2.51833 13.1818 2.95961 13.183 3.406C13.183 3.742 13.24 4.057 13.334 4.356C13.679 4.313 14.005 4.441 14.005 4.812V13.147C13.893 13.594 13.79 14.047 13.695 14.51C13.515 14.615 13.341 14.738 13.182 14.896V16.582H11.753L2 25.438V35.497L2.553 36C2.47126 36.4614 2.4321 36.9294 2.436 37.398C2.436 38.574 2.645 39.528 2.903 39.528H4.068C4.117 40.802 4.36 41.773 4.654 41.773H6.443C6.488 41.773 6.531 41.742 6.573 41.697L9.291 44.381H9.924C10.013 46.42 10.334 47.938 10.719 47.938H13.003L19.615 51.592V56.375C19.615 57.443 20.418 58.313 21.405 58.313H22.227V60.215C22.227 61.196 22.967 62 23.872 62H27.159C28.062 62 28.804 61.196 28.804 60.215V55.379C29.858 55.5045 30.9186 55.5663 31.98 55.564C32.556 55.564 33.157 55.548 33.769 55.517C36.989 55.353 42.687 54.73 47.981 54.095C48.434 56.778 49.414 58.74 50.585 59.116H54.694C56.035 58.686 57.121 56.186 57.458 52.903C59.058 52.694 60.104 52.553 60.279 52.53L61.861 52.315L61.96 50.669C62.017 49.695 62.421 41.037 58.774 36.945ZM2.902 38.463C2.773 38.463 2.669 37.986 2.669 37.399C2.669 36.812 2.773 36.335 2.902 36.335C3.031 36.335 3.135 36.812 3.135 37.399C3.135 37.986 3.031 38.463 2.902 38.463ZM2.968 35.045V25.891L10.787 18.791V36.918L6.878 35.953H5.271V37.142L2.968 35.045ZM4.653 40.414C4.486 40.414 4.355 39.805 4.355 39.055C4.355 38.492 4.428 38.012 4.535 37.805L4.866 38.106C4.918 38.351 4.95 38.685 4.95 39.055C4.95 39.805 4.817 40.414 4.653 40.414ZM8.322 42.043L6.239 39.986V37.285L8.322 37.908V42.043ZM10.718 46.063C10.49 46.063 10.307 44.803 10.307 43.25C10.307 41.697 10.491 40.437 10.718 40.437C10.944 40.437 11.129 41.697 11.129 43.25C11.129 44.803 10.944 46.063 10.718 46.063ZM22.226 57.313H21.404C20.951 57.313 20.582 56.891 20.582 56.375V48.875C20.582 48.359 20.951 47.937 21.404 47.937H22.226V57.313ZM60.026 50.546C60.026 50.546 40.672 53.162 33.671 53.52C33.072 53.549 32.509 53.564 31.978 53.564C30.748 53.564 29.697 53.489 28.802 53.372V45.036C28.802 44.056 28.061 43.251 27.157 43.251H24.4C24.011 42.087 23.547 41.405 23.047 41.405C22.135 41.405 21.342 43.669 20.915 47.02C20.166 47.252 19.613 47.992 19.613 48.875V49.324L12.361 45.316V39.371C12.361 38.064 13.905 37.588 13.905 37.588L14.04 34.659C14.858 34.972 15.782 34.791 16.471 34.104V14.896C16.2516 14.6754 15.9923 14.4982 15.707 14.374C15.923 13.406 16.175 12.483 16.478 11.553C16.746 10.733 18.581 10.438 21.039 10.438C26.432 10.438 34.816 11.858 36.197 12.267C38.209 12.862 39.435 14.882 39.435 14.882C42.009 15.477 44.171 17.735 44.687 18.924C45.201 20.112 43.758 20.112 43.758 20.112C43.758 20.112 44.275 22.371 45.51 25.462C46.744 28.553 52.922 29.742 53.746 30.813C54.569 31.882 55.083 36.876 55.083 36.876C55.083 36.876 56.888 37.784 57.349 38.302C60.544 41.883 60.026 50.546 60.026 50.546Z" fill="#F30917"/>
<path fill-rule="evenodd" clip-rule="evenodd" d="M22.6359 28.219V20.467C22.6359 19.935 22.2979 19.673 21.8839 19.887L19.2789 21.234C18.8649 21.448 18.5259 22.059 18.5259 22.592V28.219C18.5259 28.751 18.8959 29.188 19.3479 29.188H21.8139C22.2649 29.188 22.6359 28.751 22.6359 28.219ZM33.7569 28.842L28.6759 27.432C27.7889 27.187 27.7429 27.333 28.5699 27.759L33.0319 30.054C33.8599 30.48 34.7249 31.622 34.9559 32.594L37.5409 43.473C37.7719 44.444 37.8599 44.424 37.7389 43.429L36.4169 32.637C36.2969 31.643 36.9439 30.826 37.8559 30.824L50.3069 30.785C51.2189 30.783 51.2229 30.714 50.3129 30.633L37.0199 29.439C35.919 29.3205 34.8284 29.121 33.7569 28.842Z" fill="#F30917"/>
<path fill-rule="evenodd" clip-rule="evenodd" d="M54.275 43.227L53.204 32.936C53.151 32.421 52.731 32 52.276 32H38.589C38.134 32 37.8 32.422 37.847 32.936L38.91 44.244C38.957 44.759 39.371 45.155 39.828 45.125L53.545 44.216C53.999 44.187 54.33 43.74 54.275 43.227ZM39.74 34.73C39.679 34.225 40.024 33.804 40.507 33.796L44.011 33.728C44.492 33.719 44.938 34.124 44.997 34.628C45.058 35.134 44.71 35.554 44.228 35.562L40.724 35.631C40.243 35.641 39.8 35.235 39.74 34.73ZM40.176 38.4C40.116 37.894 40.459 37.474 40.943 37.466L44.447 37.398C44.928 37.389 45.373 37.794 45.434 38.298C45.494 38.802 45.148 39.224 44.666 39.234L41.161 39.3C40.679 39.31 40.236 38.903 40.176 38.4ZM45.103 42.901L41.597 42.969C41.117 42.977 40.67 42.573 40.611 42.068C40.551 41.564 40.898 41.142 41.379 41.134L44.883 41.068C45.366 41.058 45.81 41.463 45.869 41.966C45.928 42.473 45.583 42.893 45.103 42.901ZM46.749 34.596C46.688 34.092 47.034 33.671 47.515 33.662L51.021 33.595C51.502 33.586 51.947 33.991 52.005 34.495C52.067 35 51.72 35.42 51.238 35.43L47.733 35.496C47.253 35.506 46.81 35.101 46.749 34.596ZM47.185 38.265C47.125 37.761 47.469 37.34 47.951 37.33L51.457 37.264C51.937 37.254 52.383 37.66 52.443 38.164C52.502 38.669 52.158 39.09 51.675 39.098L48.17 39.165C47.688 39.175 47.244 38.77 47.185 38.265ZM52.111 42.767L48.605 42.835C48.124 42.844 47.68 42.439 47.621 41.934C47.561 41.43 47.905 41.01 48.388 41L51.894 40.933C52.373 40.923 52.819 41.329 52.878 41.833C52.938 42.338 52.593 42.758 52.111 42.767ZM24.691 19.787V24.601C24.691 25.13 25.037 25.579 25.459 25.597L34.162 25.963L33.807 19.441L25.46 18.876C25.037 18.848 24.691 19.258 24.691 19.787ZM43.897 26.374C44.32 26.393 44.527 26.01 44.36 25.524L42.762 20.911C42.594 20.426 42.112 20.004 41.689 19.975L34.961 19.519L35.315 26.012L43.897 26.374ZM37.845 47.939L32.91 48.259C32.459 48.289 32.09 48.746 32.09 49.276V50.776C32.09 51.305 32.459 51.715 32.91 51.686L37.845 51.365C38.296 51.336 38.665 50.877 38.665 50.348V48.848C38.665 48.32 38.296 47.91 37.845 47.939ZM53.46 47.618V48.928C53.46 49.47 53.827 49.868 54.277 49.807L57.575 49.36C58.024 49.298 58.391 48.803 58.391 48.26V46.948C58.391 46.406 58.024 46.008 57.575 46.069L54.277 46.516C53.827 46.578 53.46 47.073 53.46 47.618ZM31.713 41.262C28.681 32.003 21.403 36.375 21.403 36.375C27.755 36.197 34.744 50.521 31.713 41.262ZM25.441 15.553C24.034 11.258 20.658 13.285 20.658 13.285C23.603 13.203 26.847 19.849 25.441 15.553Z" fill="#F30917"/>
</svg>
